# xmcd
#
# Track frame offsets:
#	150
#	15512
#	28645
#	40714
#	57843
#	72050
#	84636
#	102665
#	115809
#	132358
#	145931
#	159359
#	171041
#	184559
#	196888
#
# Disc length: 2736 seconds
#
# Revision: 0
# Processed by: cddbd v1.4PL0 Copyright (c) Steve Scherf et al.
# Submitted via: EasyCDDAExtractor 4.6.9.1
#
DISCID=c00aae0f
DTITLE=RICHARD CLAYDERMAN - ROMANCES
DYEAR=1900
DGENRE=
TTITLE0=DOLANNES MELODY
TTITLE1=LES RIVAGES DE LA NUIT
TTITLE2=PLAISIR D'AMOUR
TTITLE3=CANDLE IN THE WIND
TTITLE4=TENDRESSES
TTITLE5=SOUVIENS TOI DE MOI
TTITLE6=SOMETIMES WHEN WE TOUCH
TTITLE7=LOVE IS A MANY SPLENDORED THING
TTITLE8=ELEANA
TTITLE9=L'ENFANT QUI REVE
TTITLE10=DES BLES SANS MOISSON
TTITLE11=THE MOST BEAUTIFUL GIRL
TTITLE12=ECOUTE O MON AMOUR
TTITLE13=L'AMOUR TENDRESSE
TTITLE14=VAYA CON DIOS
EXTD=
EXTT0=
EXTT1=
EXTT2=
EXTT3=
EXTT4=
EXTT5=
EXTT6=
EXTT7=
EXTT8=
EXTT9=
EXTT10=
EXTT11=
EXTT12=
EXTT13=
EXTT14=
PLAYORDER=
